<svg xmlns="http://www.w3.org/2000/svg" viewBox="0 0 100 100">
  <defs>
    <linearGradient id="grad" x1="0%" y1="0%" x2="100%" y2="100%">
      <stop offset="0%" style="stop-color:#6366f1;stop-opacity:1" />
      <stop offset="100%" style="stop-color:#8b5cf6;stop-opacity:1" />
    </linearGradient>
  </defs>
  
  <!-- Background circle -->
  <circle cx="50" cy="50" r="48" fill="url(#grad)" stroke="#fff" stroke-width="2"/>
  
  <!-- AI Brain icon -->
  <path d="M35 30 Q50 20 65 30 Q70 35 65 40 Q50 50 35 40 Q30 35 35 30 Z" fill="#fff" opacity="0.9"/>
  <path d="M40 35 Q50 30 60 35 Q62 37 60 39 Q50 45 40 39 Q38 37 40 35 Z" fill="#6366f1" opacity="0.8"/>
  
  <!-- Neural network lines -->
  <line x1="25" y1="25" x2="35" y2="30" stroke="#fff" stroke-width="2" opacity="0.6"/>
  <line x1="75" y1="25" x2="65" y2="30" stroke="#fff" stroke-width="2" opacity="0.6"/>
  <line x1="25" y1="75" x2="35" y2="70" stroke="#fff" stroke-width="2" opacity="0.6"/>
  <line x1="75" y1="75" x2="65" y2="70" stroke="#fff" stroke-width="2" opacity="0.6"/>
  
  <!-- Connection dots -->
  <circle cx="25" cy="25" r="3" fill="#fff" opacity="0.8"/>
  <circle cx="75" cy="25" r="3" fill="#fff" opacity="0.8"/>
  <circle cx="25" cy="75" r="3" fill="#fff" opacity="0.8"/>
  <circle cx="75" cy="75" r="3" fill="#fff" opacity="0.8"/>
  
  <!-- Central AI symbol -->
  <text x="50" y="58" font-family="Arial, sans-serif" font-size="16" font-weight="bold" text-anchor="middle" fill="#fff">AI</text>
</svg>
